<svg width="149" height="25" viewBox="0 0 149 25" fill="none" xmlns="http://www.w3.org/2000/svg">
<path d="M30.4688 20.7111V4.63132H41.2263V7.19049H31.805L33.4129 5.53722V12.9203L31.805 11.5841H40.8187V14.1206H31.805L33.4129 12.7844V20.7111H30.4688Z" fill="url(#paint0_linear_3797_7481)"/>
<path d="M46.8958 20.9828C45.6729 20.9828 44.699 20.5827 43.9743 19.7825C43.2647 18.9672 42.9099 17.8424 42.9099 16.408V8.61729H45.8087V15.6833C45.8087 16.6949 45.9748 17.4423 46.307 17.9254C46.6543 18.3935 47.1751 18.6275 47.8697 18.6275C48.6548 18.6275 49.2587 18.3708 49.6815 17.8575C50.1193 17.329 50.3383 16.5666 50.3383 15.5701V8.61729H53.2371V20.7111H50.5874L50.5194 17.3819L50.8818 17.4951C50.7006 18.6426 50.2703 19.5108 49.5909 20.0996C48.9115 20.6884 48.0131 20.9828 46.8958 20.9828Z" fill="url(#paint1_linear_3797_7481)"/>
<path d="M56.1967 20.7111V8.61729H58.8238L58.9371 12.0144L58.5974 11.8785C58.7181 11.033 58.9673 10.3536 59.3447 9.84025C59.7222 9.32691 60.1827 8.94945 60.7262 8.70788C61.2698 8.4663 61.8661 8.34552 62.5154 8.34552C63.4062 8.34552 64.1535 8.54179 64.7575 8.93435C65.3765 9.32691 65.8446 9.87045 66.1616 10.565C66.4787 11.2444 66.6372 12.0371 66.6372 12.943V20.7111H63.7383V13.8715C63.7383 13.1921 63.6704 12.6184 63.5345 12.1503C63.3986 11.6823 63.1722 11.3274 62.8551 11.0859C62.5531 10.8292 62.1455 10.7009 61.6321 10.7009C60.8621 10.7009 60.2431 10.9726 59.775 11.5162C59.3221 12.0597 59.0956 12.8448 59.0956 13.8715V20.7111H56.1967Z" fill="url(#paint2_linear_3797_7481)"/>
<path d="M73.5875 20.9828C72.5609 20.9828 71.6701 20.7262 70.9151 20.2128C70.1753 19.6995 69.6016 18.9672 69.1939 18.016C68.7863 17.0648 68.5824 15.9475 68.5824 14.6642C68.5824 13.3808 68.7863 12.2635 69.1939 11.3123C69.6016 10.3611 70.1829 9.62888 70.9378 9.11553C71.6927 8.60219 72.576 8.34552 73.5875 8.34552C74.4331 8.34552 75.1729 8.51915 75.807 8.86641C76.4562 9.21367 76.9469 9.70437 77.2791 10.3385V4.63132H80.178V20.7111H77.415L77.347 18.9219C77.0149 19.5711 76.5166 20.0769 75.8523 20.4393C75.188 20.8017 74.4331 20.9828 73.5875 20.9828ZM74.4708 18.6275C75.0747 18.6275 75.5805 18.4765 75.9882 18.1745C76.4109 17.8726 76.728 17.4272 76.9394 16.8383C77.1659 16.2344 77.2791 15.5097 77.2791 14.6642C77.2791 13.8036 77.1659 13.0789 76.9394 12.49C76.728 11.9012 76.4109 11.4558 75.9882 11.1538C75.5805 10.8518 75.0747 10.7009 74.4708 10.7009C73.5951 10.7009 72.893 11.0557 72.3646 11.7653C71.8512 12.4598 71.5946 13.4261 71.5946 14.6642C71.5946 15.872 71.8512 16.8383 72.3646 17.5631C72.893 18.2727 73.5951 18.6275 74.4708 18.6275Z" fill="url(#paint3_linear_3797_7481)"/>
<path d="M88.1347 20.9828C86.9268 20.9828 85.8775 20.7262 84.9867 20.2128C84.0959 19.6844 83.4089 18.9446 82.9258 17.9934C82.4426 17.0422 82.201 15.9324 82.201 14.6642C82.201 13.3959 82.4426 12.2937 82.9258 11.3576C83.4089 10.4064 84.0883 9.66662 84.964 9.13818C85.8548 8.60974 86.8891 8.34552 88.0668 8.34552C89.2142 8.34552 90.2183 8.60219 91.0789 9.11553C91.9546 9.62888 92.6265 10.3687 93.0945 11.335C93.5626 12.3013 93.7966 13.4639 93.7966 14.8227V15.4795H85.2132C85.2736 16.5364 85.5604 17.3366 86.0738 17.8801C86.6022 18.4086 87.2967 18.6728 88.1573 18.6728C88.8066 18.6728 89.3426 18.5294 89.7653 18.2425C90.2032 17.9405 90.5051 17.5253 90.6712 16.9969L93.6381 17.1781C93.3059 18.3557 92.6491 19.2843 91.6677 19.9637C90.7014 20.6431 89.5237 20.9828 88.1347 20.9828ZM85.2132 13.5318H90.8071C90.7467 12.5504 90.4674 11.8257 89.9692 11.3576C89.4709 10.8745 88.8368 10.6329 88.0668 10.6329C87.2967 10.6329 86.6551 10.882 86.1417 11.3803C85.6435 11.8785 85.334 12.5957 85.2132 13.5318Z" fill="url(#paint4_linear_3797_7481)"/>
<path d="M100.139 20.9828C99.1124 20.9828 98.2216 20.7262 97.4667 20.2128C96.7269 19.6995 96.1532 18.9672 95.7455 18.016C95.3379 17.0648 95.134 15.9475 95.134 14.6642C95.134 13.3808 95.3379 12.2635 95.7455 11.3123C96.1532 10.3611 96.7345 9.62888 97.4894 9.11553C98.2443 8.60219 99.1275 8.34552 100.139 8.34552C100.985 8.34552 101.724 8.51915 102.359 8.86641C103.008 9.21367 103.499 9.70437 103.831 10.3385V4.63132H106.73V20.7111H103.967L103.899 18.9219C103.566 19.5711 103.068 20.0769 102.404 20.4393C101.74 20.8017 100.985 20.9828 100.139 20.9828ZM101.022 18.6275C101.626 18.6275 102.132 18.4765 102.54 18.1745C102.963 17.8726 103.28 17.4272 103.491 16.8383C103.717 16.2344 103.831 15.5097 103.831 14.6642C103.831 13.8036 103.717 13.0789 103.491 12.49C103.28 11.9012 102.963 11.4558 102.54 11.1538C102.132 10.8518 101.626 10.7009 101.022 10.7009C100.147 10.7009 99.4446 11.0557 98.9162 11.7653C98.4028 12.4598 98.1462 13.4261 98.1462 14.6642C98.1462 15.872 98.4028 16.8383 98.9162 17.5631C99.4446 18.2727 100.147 18.6275 101.022 18.6275Z" fill="url(#paint5_linear_3797_7481)"/>
<path d="M109.548 20.7111V4.63132H115.573C117.536 4.63132 119.023 4.97858 120.034 5.67311C121.061 6.36763 121.574 7.46981 121.574 8.97965C121.574 9.65907 121.431 10.2555 121.144 10.7688C120.872 11.267 120.465 11.6596 119.921 11.9465C119.393 12.2333 118.751 12.3919 117.996 12.4221L117.973 12.3768C119.347 12.4221 120.404 12.7995 121.144 13.5092C121.884 14.2037 122.254 15.1322 122.254 16.2948C122.254 17.7744 121.74 18.8842 120.714 19.624C119.702 20.3487 118.26 20.7111 116.388 20.7111H109.548ZM112.493 18.2198H116.252C117.173 18.2198 117.898 18.0311 118.426 17.6537C118.97 17.2762 119.242 16.7176 119.242 15.9777C119.242 15.2379 118.977 14.6717 118.449 14.2792C117.921 13.8866 117.188 13.6903 116.252 13.6903H112.493V18.2198ZM112.493 11.3803H115.482C116.448 11.3803 117.203 11.1991 117.747 10.8367C118.29 10.4744 118.562 9.94594 118.562 9.25142C118.562 8.5267 118.298 7.9907 117.77 7.64344C117.241 7.29618 116.479 7.12255 115.482 7.12255H112.493V11.3803Z" fill="url(#paint6_linear_3797_7481)"/>
<path d="M124.666 20.7111V8.61729H127.565V20.7111H124.666ZM124.62 7.00931V4.42749H127.633V7.00931H124.62Z" fill="url(#paint7_linear_3797_7481)"/>
<path d="M134.616 20.7111C133.408 20.7111 132.517 20.4318 131.944 19.8731C131.385 19.3145 131.106 18.4388 131.106 17.246V5.78634H134.004V16.9742C134.004 17.5329 134.125 17.9254 134.367 18.1519C134.608 18.3633 134.986 18.469 135.499 18.469H137.198V20.7111H134.616ZM129.203 10.8594V8.61729H137.198V10.8594H129.203Z" fill="url(#paint8_linear_3797_7481)"/>
<path d="M143.813 20.9828C142.62 20.9828 141.616 20.8092 140.801 20.462C140 20.1147 139.381 19.6315 138.944 19.0125C138.506 18.3935 138.257 17.6914 138.196 16.9063L141.163 16.7704C141.269 17.4045 141.533 17.8952 141.956 18.2425C142.378 18.5898 143.005 18.7634 143.835 18.7634C144.515 18.7634 145.043 18.6577 145.421 18.4463C145.813 18.2198 146.01 17.8726 146.01 17.4045C146.01 17.1328 145.942 16.9063 145.806 16.7251C145.67 16.5439 145.413 16.3854 145.036 16.2495C144.658 16.1136 144.1 15.9777 143.36 15.8419C142.122 15.6305 141.148 15.3738 140.438 15.0718C139.729 14.7548 139.223 14.3622 138.921 13.8942C138.634 13.4261 138.491 12.8448 138.491 12.1503C138.491 11.0179 138.921 10.1045 139.782 9.40995C140.657 8.70033 141.933 8.34552 143.609 8.34552C144.696 8.34552 145.609 8.5267 146.349 8.88906C147.089 9.23632 147.663 9.71947 148.071 10.3385C148.493 10.9424 148.757 11.637 148.863 12.4221L145.942 12.558C145.866 12.1503 145.73 11.7955 145.534 11.4935C145.338 11.1916 145.074 10.9651 144.741 10.8141C144.409 10.648 144.017 10.565 143.564 10.565C142.884 10.565 142.371 10.7009 142.024 10.9726C141.676 11.2444 141.503 11.6068 141.503 12.0597C141.503 12.3768 141.578 12.641 141.729 12.8524C141.895 13.0638 142.16 13.2374 142.522 13.3733C142.884 13.4941 143.367 13.6073 143.971 13.713C145.24 13.9093 146.236 14.1659 146.961 14.483C147.701 14.785 148.222 15.1775 148.523 15.6607C148.841 16.1287 148.999 16.6949 148.999 17.3592C148.999 18.1293 148.78 18.786 148.342 19.3296C147.92 19.8731 147.316 20.2883 146.531 20.5752C145.76 20.847 144.855 20.9828 143.813 20.9828Z" fill="url(#paint9_linear_3797_7481)"/>
<path d="M7.58594 1.29028V3.12718H18.0616L21.8658 9.93455H7.58594V11.8795H21.8658L17.8961 18.5787H7.58594V20.4157H19.2745L24.7328 10.907L19.2745 1.29028H7.58594Z" stroke="white" stroke-width="0.4"/>
<path d="M17.1453 5.24512H6.02603L0.328125 15.0549L5.80475 24.7003L7.46437 23.7138L3.26005 16.0961H17.1453V14.0136H3.26005L7.0218 7.3276H17.1453V5.24512Z" stroke="white" stroke-width="0.4"/>
<path d="M7.58594 0.299805V2.16838H17.8601L21.5912 9.0931H7.58594V11.0716H21.5912L17.6979 17.8864H7.58594V19.755H19.0497L24.4031 10.0823L19.0497 0.299805H7.58594Z" fill="url(#paint10_linear_3797_7481)"/>
<path d="M16.8172 4.91504H5.6979L0 14.5586L5.47666 24.0404L7.13623 23.0707L2.93192 15.5822H16.8172V13.5349H2.93192L6.69367 6.96227H16.8172V4.91504Z" fill="url(#paint11_linear_3797_7481)"/>
<path d="M16.8172 4.91504H5.6979L0 14.5586L5.47666 24.0404L7.13623 23.0707L2.93192 15.5822H16.8172V13.5349H2.93192L6.69367 6.96227H16.8172V4.91504Z" fill="url(#paint12_linear_3797_7481)"/>
<path d="M16.8172 4.91504H5.6979L0 14.5586L5.47666 24.0404L7.13623 23.0707L2.93192 15.5822H16.8172V13.5349H2.93192L6.69367 6.96227H16.8172V4.91504Z" fill="url(#paint13_linear_3797_7481)"/>
<defs>
<linearGradient id="paint0_linear_3797_7481" x1="156.212" y1="43.9893" x2="149.485" y2="-13.8491" gradientUnits="userSpaceOnUse">
<stop stop-color="#000712"/>
<stop offset="1" stop-color="#F2F3F5"/>
</linearGradient>
<linearGradient id="paint1_linear_3797_7481" x1="156.212" y1="43.9893" x2="149.485" y2="-13.8491" gradientUnits="userSpaceOnUse">
<stop stop-color="#000712"/>
<stop offset="1" stop-color="#F2F3F5"/>
</linearGradient>
<linearGradient id="paint2_linear_3797_7481" x1="156.212" y1="43.9893" x2="149.485" y2="-13.8491" gradientUnits="userSpaceOnUse">
<stop stop-color="#000712"/>
<stop offset="1" stop-color="#F2F3F5"/>
</linearGradient>
<linearGradient id="paint3_linear_3797_7481" x1="156.212" y1="43.9893" x2="149.485" y2="-13.8491" gradientUnits="userSpaceOnUse">
<stop stop-color="#000712"/>
<stop offset="1" stop-color="#F2F3F5"/>
</linearGradient>
<linearGradient id="paint4_linear_3797_7481" x1="156.212" y1="43.9893" x2="149.485" y2="-13.8491" gradientUnits="userSpaceOnUse">
<stop stop-color="#000712"/>
<stop offset="1" stop-color="#F2F3F5"/>
</linearGradient>
<linearGradient id="paint5_linear_3797_7481" x1="156.212" y1="43.9893" x2="149.485" y2="-13.8491" gradientUnits="userSpaceOnUse">
<stop stop-color="#000712"/>
<stop offset="1" stop-color="#F2F3F5"/>
</linearGradient>
<linearGradient id="paint6_linear_3797_7481" x1="156.212" y1="43.9893" x2="149.485" y2="-13.8491" gradientUnits="userSpaceOnUse">
<stop stop-color="#000712"/>
<stop offset="1" stop-color="#F2F3F5"/>
</linearGradient>
<linearGradient id="paint7_linear_3797_7481" x1="156.212" y1="43.9893" x2="149.485" y2="-13.8491" gradientUnits="userSpaceOnUse">
<stop stop-color="#000712"/>
<stop offset="1" stop-color="#F2F3F5"/>
</linearGradient>
<linearGradient id="paint8_linear_3797_7481" x1="156.212" y1="43.9893" x2="149.485" y2="-13.8491" gradientUnits="userSpaceOnUse">
<stop stop-color="#000712"/>
<stop offset="1" stop-color="#F2F3F5"/>
</linearGradient>
<linearGradient id="paint9_linear_3797_7481" x1="156.212" y1="43.9893" x2="149.485" y2="-13.8491" gradientUnits="userSpaceOnUse">
<stop stop-color="#000712"/>
<stop offset="1" stop-color="#F2F3F5"/>
</linearGradient>
<linearGradient id="paint10_linear_3797_7481" x1="23.7436" y1="24.0417" x2="8.79736" y2="1.10727" gradientUnits="userSpaceOnUse">
<stop stop-color="#000712"/>
<stop offset="1" stop-color="#F2F3F5"/>
</linearGradient>
<linearGradient id="paint11_linear_3797_7481" x1="15.0623" y1="10.0151" x2="7.66613" y2="14.759" gradientUnits="userSpaceOnUse">
<stop stop-color="#2C47B0"/>
<stop offset="1" stop-color="#1D3181"/>
</linearGradient>
<linearGradient id="paint12_linear_3797_7481" x1="16.0289" y1="23.4428" x2="-0.939598" y2="7.9987" gradientUnits="userSpaceOnUse">
<stop stop-color="#000712"/>
<stop offset="1" stop-color="#F2F3F5"/>
</linearGradient>
<linearGradient id="paint13_linear_3797_7481" x1="17.6844" y1="34.827" x2="1.68392" y2="5.46666" gradientUnits="userSpaceOnUse">
<stop stop-color="#000712"/>
<stop offset="1" stop-color="#F2F3F5"/>
</linearGradient>
</defs>
</svg>
